<?xml version="1.0" encoding="UTF-8" standalone="no"?>
<!-- Created with Inkscape (http://www.inkscape.org/) -->

<svg
   width="210mm"
   height="297mm"
   viewBox="0 0 210 297"
   version="1.1"
   id="svg5"
   inkscape:version="1.1.1 (3bf5ae0d25, 2021-09-20)"
   sodipodi:docname="logo2.svg"
   xmlns:inkscape="http://www.inkscape.org/namespaces/inkscape"
   xmlns:sodipodi="http://sodipodi.sourceforge.net/DTD/sodipodi-0.dtd"
   xmlns:xlink="http://www.w3.org/1999/xlink"
   xmlns="http://www.w3.org/2000/svg"
   xmlns:svg="http://www.w3.org/2000/svg">
  <sodipodi:namedview
     id="namedview7"
     pagecolor="#ffffff"
     bordercolor="#666666"
     borderopacity="1.0"
     inkscape:pageshadow="2"
     inkscape:pageopacity="0.0"
     inkscape:pagecheckerboard="0"
     inkscape:document-units="mm"
     showgrid="false"
     showguides="true"
     inkscape:guide-bbox="true"
     inkscape:zoom="2.2299489"
     inkscape:cx="302.69753"
     inkscape:cy="257.62923"
     inkscape:window-width="1920"
     inkscape:window-height="1017"
     inkscape:window-x="1912"
     inkscape:window-y="166"
     inkscape:window-maximized="1"
     inkscape:current-layer="layer1" />
  <defs
     id="defs2">
    <linearGradient
       inkscape:collect="always"
       id="linearGradient1370">
      <stop
         style="stop-color:#ff6600;stop-opacity:1;"
         offset="0"
         id="stop1366" />
      <stop
         style="stop-color:#ff6600;stop-opacity:0;"
         offset="1"
         id="stop1368" />
    </linearGradient>
    <linearGradient
       inkscape:collect="always"
       xlink:href="#linearGradient1370"
       id="linearGradient1372"
       x1="75.592491"
       y1="42.64986"
       x2="102.0808"
       y2="69.396362"
       gradientUnits="userSpaceOnUse"
       gradientTransform="translate(5.2183838e-6)" />
    <filter
       style="color-interpolation-filters:sRGB;"
       inkscape:label="Drop Shadow"
       id="filter2215"
       x="-0.302251"
       y="-0.302251"
       width="1.7207524"
       height="1.895128">
      <feFlood
         flood-opacity="0.498039"
         flood-color="rgb(0,0,0)"
         result="flood"
         id="feFlood2205" />
      <feComposite
         in="flood"
         in2="SourceGraphic"
         operator="in"
         result="composite1"
         id="feComposite2207" />
      <feGaussianBlur
         in="composite1"
         stdDeviation="1.3"
         result="blur"
         id="feGaussianBlur2209" />
      <feOffset
         dx="1.2"
         dy="3"
         result="offset"
         id="feOffset2211" />
      <feComposite
         in="SourceGraphic"
         in2="offset"
         operator="over"
         result="composite2"
         id="feComposite2213" />
    </filter>
    <filter
       style="color-interpolation-filters:sRGB;"
       inkscape:label="Drop Shadow"
       id="filter2395"
       x="-0.06708648"
       y="-0.08385932"
       width="1.1820919"
       height="1.2675512">
      <feFlood
         flood-opacity="0.498039"
         flood-color="rgb(0,0,0)"
         result="flood"
         id="feFlood2385" />
      <feComposite
         in="flood"
         in2="SourceGraphic"
         operator="in"
         result="composite1"
         id="feComposite2387" />
      <feGaussianBlur
         in="composite1"
         stdDeviation="0.7"
         result="blur"
         id="feGaussianBlur2389" />
      <feOffset
         dx="1.2"
         dy="2"
         result="offset"
         id="feOffset2391" />
      <feComposite
         in="SourceGraphic"
         in2="offset"
         operator="over"
         result="composite2"
         id="feComposite2393" />
    </filter>
  </defs>
  <g
     inkscape:label="Warstwa 1"
     inkscape:groupmode="layer"
     id="layer1">
    <g
       id="g19756"
       transform="matrix(1.1590354,0,0,1.1590354,-38.976704,-7.0602108)">
      <path
         id="rect870"
         style="fill:#000080;fill-rule:evenodd;stroke-width:0.264583"
         d="m 75.953832,37.073385 c -3.432641,0 -6.196005,2.763361 -6.196005,6.196005 v 24.164932 c 0,3.432641 2.763364,6.196005 6.196005,6.196005 h 24.164938 c 3.43264,0 6.196,-2.763364 6.196,-6.196005 V 43.26939 c 0,-3.432644 -2.76336,-6.196005 -6.196,-6.196005 z m 2.047938,3.098001 h 20.069058 c 2.850842,0 5.145942,2.295102 5.145942,5.145939 v 20.069059 c 0,2.85084 -2.2951,5.145939 -5.145942,5.145939 H 78.00177 c -2.85084,0 -5.145939,-2.295099 -5.145939,-5.145939 V 45.317325 c 0,-2.850837 2.295099,-5.145939 5.145939,-5.145939 z" />
      <rect
         style="fill:url(#linearGradient1372);fill-opacity:1;fill-rule:evenodd;stroke-width:0.203295"
         id="rect1078"
         width="28.08901"
         height="28.08901"
         x="73.991791"
         y="41.30735"
         ry="4.7608495" />
      <path
         id="path1558"
         style="fill:#ffffff;stroke-width:8.36158;filter:url(#filter2395)"
         d="m 78.236413,48.804361 a 1.9985878,1.9985878 0 0 0 -1.998777,1.998293 1.9985878,1.9985878 0 0 0 0.19472,0.858891 12.521274,12.521274 0 0 0 -0.917209,4.655458 12.521274,12.521274 0 0 0 12.52139,12.520909 12.521274,12.521274 0 0 0 12.520913,-12.520909 12.521274,12.521274 0 0 0 -0.930221,-4.734984 1.9985878,1.9985878 0 0 0 0.16001,-0.779365 1.9985878,1.9985878 0 0 0 -1.998775,-1.998293 1.9985878,1.9985878 0 0 0 -1.998295,1.998293 1.9985878,1.9985878 0 0 0 1.222306,1.840207 9.7280681,9.7280681 0 0 1 0.751889,3.674142 9.7280681,9.7280681 0 0 1 -9.727827,9.727827 9.7280681,9.7280681 0 0 1 -9.728308,-9.727827 9.7280681,9.7280681 0 0 1 0.766831,-3.701134 1.9985878,1.9985878 0 0 0 1.159647,-1.813215 1.9985878,1.9985878 0 0 0 -1.998294,-1.998293 z" />
      <circle
         style="fill:#ffffff;stroke-width:8.96501;filter:url(#filter2215)"
         id="path2003"
         cx="88.036301"
         cy="43.722511"
         r="5.161273" />
      <path
         d="m 79.779436,82.837117 q -0.06201,0.248047 -0.229444,0.936377 -0.08682,0.403076 -0.148828,0.942578 h -5.61206 q -0.03101,-1.457275 -0.15503,-4.799707 -0.08061,-1.711523 -0.291455,-4.725293 h 4.303614 l -0.353467,7.900293 q 0.601513,0 1.804541,-0.130225 0.248047,-0.0248 0.682129,-0.124023 z"
         style="font-size:12.7px;line-height:1.25;font-family:'Showcard Gothic';-inkscape-font-specification:'Showcard Gothic';fill:#ff6600;stroke-width:0.264583"
         id="path19681" />
      <path
         d="m 88.386662,79.748933 q 0,2.189014 -1.128613,3.7021 -1.184424,1.581299 -3.032373,1.581299 -1.90376,0 -3.081982,-1.593701 -1.11001,-1.500684 -1.11001,-3.689698 0,-2.337841 1.209228,-3.671093 1.141016,-1.252637 2.982764,-1.252637 1.810742,0 2.951758,1.258838 1.209228,1.339453 1.209228,3.664892 z m -2.982763,1.091407 q 0,-1.723926 -1.165821,-1.723926 -1.134814,0 -1.134814,1.736328 0,0.694531 0.297656,1.296045 0.334863,0.675928 0.824756,0.675928 0.47749,0 0.843359,-0.68833 0.334864,-0.626319 0.334864,-1.296045 z"
         style="font-size:12.7px;line-height:1.25;font-family:'Showcard Gothic';-inkscape-font-specification:'Showcard Gothic';fill:#000000;stroke-width:0.264583"
         id="path19683" />
      <path
         d="m 97.148918,80.641902 q -0.06201,0.5271 -0.186035,1.990576 -0.06201,0.874366 -0.117822,2.071192 -0.830957,0.241845 -2.424658,0.241845 -2.368848,0 -3.850928,-1.066601 -1.74873,-1.27124 -1.74873,-3.782715 0,-2.406055 1.531689,-3.75791 1.438672,-1.27124 3.788916,-1.27124 0.886767,0 1.90376,0.136426 l 0.341064,3.912939 q -0.409277,-0.155029 -1.16582,-0.155029 -0.961182,0 -1.736328,0.589111 -0.868164,0.663525 -0.868164,1.686719 0,0.967383 0.737939,1.494482 0.620117,0.446484 1.432471,0.42168 l -0.09922,-1.246436 q -0.03721,-0.384472 -0.167432,-1.265039 z"
         style="font-size:12.7px;line-height:1.25;font-family:'Showcard Gothic';-inkscape-font-specification:'Showcard Gothic';fill:#ff6600;stroke-width:0.264583"
         id="path19685" />
      <path
         d="m 105.78715,79.748933 q 0,2.189014 -1.12861,3.7021 -1.18443,1.581299 -3.03238,1.581299 -1.903756,0 -3.081979,-1.593701 -1.110009,-1.500684 -1.110009,-3.689698 0,-2.337841 1.209228,-3.671093 1.141016,-1.252637 2.98276,-1.252637 1.81075,0 2.95176,1.258838 1.20923,1.339453 1.20923,3.664892 z m -2.98276,1.091407 q 0,-1.723926 -1.16582,-1.723926 -1.13482,0 -1.13482,1.736328 0,0.694531 0.29766,1.296045 0.33486,0.675928 0.82475,0.675928 0.47749,0 0.84336,-0.68833 0.33487,-0.626319 0.33487,-1.296045 z"
         style="font-size:12.7px;line-height:1.25;font-family:'Showcard Gothic';-inkscape-font-specification:'Showcard Gothic';fill:#000000;stroke-width:0.264583"
         id="path19687" />
    </g>
  </g>
</svg>
